<svg width="499" height="129" viewBox="0 0 499 129" fill="none" xmlns="http://www.w3.org/2000/svg">
<path d="M313.273 95.8082C318.767 95.8713 324.268 96.1129 329.749 95.8794C331.227 95.8165 333.12 94.6505 334.003 93.4084C337.438 88.5724 340.543 83.5023 344.195 77.8643C347.758 83.974 351.075 89.4693 354.127 95.1076C354.573 95.931 354.053 97.6045 353.481 98.5983C349.92 104.792 346.446 111.056 342.502 117.004C337.811 124.08 331.166 128.055 322.421 128.054C217.932 128.046 113.443 128.059 8.95415 128.04C1.98674 128.039 -2.13382 122.559 1.14519 116.852C13.45 95.4349 26.1619 74.2518 39.4981 51.6653C39.4981 67.2974 39.4981 81.3921 39.4981 95.7408C45.8156 95.7408 51.754 95.7408 58.3093 95.7408C58.3093 87.0572 58.2354 78.2978 58.3543 69.541C58.3901 66.9091 58.5963 64.1718 59.3629 61.6791C61.1584 55.8407 66.06 53.0224 72.1636 53.8793C77.2665 54.5958 80.2554 58.4108 80.3088 64.6878C80.3964 74.9761 80.3325 85.2658 80.3325 95.7739C86.6593 95.7739 92.5878 95.7739 98.7216 95.7739C98.7216 82.2934 99.1219 68.8519 98.5747 55.4492C98.2349 47.1254 93.4464 40.9264 85.3696 38.3658C76.5281 35.5627 68.2464 37.086 61.3066 43.7017C60.4841 44.4858 59.7947 45.4095 58.3552 47.0558C58.3552 37.6793 57.5563 29.0411 58.5582 20.6171C59.7998 10.1778 71.8387 0.964303 82.6387 0.962121C187.294 0.940896 291.95 1.05 396.605 0.730279C404.268 0.706872 407.38 8.31234 403.732 14.2511C392.428 32.6568 381.593 51.3502 370.566 69.9265C368.809 72.8868 367.004 75.8189 365.025 79.089C362.022 74.5581 359.364 70.5479 356.511 66.2431C362.428 57.1282 368.375 47.9663 374.838 38.0109C368.092 38.0109 362.04 37.8788 356.004 38.1338C354.929 38.1792 353.664 39.6605 352.93 40.7713C350.092 45.0621 347.434 49.4714 344.249 54.5752C341.444 49.8079 339.118 45.3228 336.236 41.2287C335.151 39.6869 332.834 38.2789 330.983 38.1467C325.385 37.7469 319.741 38.0022 313.281 38.0022C318.99 46.7512 324.2 54.9807 329.697 63.0142C331.386 65.4815 331.342 67.1272 329.636 69.5732C324.024 77.6199 318.712 85.8753 312.787 94.3086C312.124 92.9381 311.822 91.3102 311.814 89.6809C311.766 79.3581 311.947 69.0316 311.734 58.7129C311.502 47.5052 305.957 40.4532 295.73 38.1495C283.148 35.3152 271.455 38.4516 259.635 43.6999C261.437 47.9196 263.097 51.8061 264.817 55.8334C266.867 54.9955 268.494 53.9275 270.233 53.6942C275.888 52.9354 281.634 51.7568 287.248 52.1457C291.568 52.4449 293.669 56.168 293.194 61.07C291.72 61.07 290.567 61.0263 289.419 61.0772C283.114 61.3568 276.733 61.1446 270.524 62.0752C261.235 63.4676 256.156 69.6032 256.024 78.3028C255.883 87.6191 260.992 94.1601 270.087 96.1958C278.65 98.1126 286.395 96.3668 293.357 90.233C293.458 92.4395 293.531 94.0468 293.612 95.8082C300.344 95.8082 306.809 95.8082 313.273 95.8082ZM153.711 37.995C152.213 37.995 150.673 38.2188 149.223 37.9542C144.318 37.0592 142.427 39.3467 141.112 43.9089C138.056 54.5129 134.35 64.9298 130.715 76.0111C130.018 74.4216 129.513 73.4036 129.117 72.3446C125.223 61.9332 121.405 51.4929 117.393 41.1277C116.91 39.881 115.448 38.1968 114.363 38.1373C108.821 37.8336 103.254 37.997 97.2316 37.997C104.88 56.0204 112.127 73.4687 119.748 90.7525C121.361 94.4131 121.218 97.6544 118.333 99.5224C115.895 101.101 112.351 101.221 109.259 101.424C107.865 101.516 106.381 100.241 104.823 99.5346C102.255 103.771 99.8849 107.682 97.5415 111.548C110.443 122.359 128.628 118.865 135.496 104.053C139.955 94.4375 143.464 84.3797 147.357 74.5038C152.088 62.5034 156.776 50.486 161.672 37.995C158.934 37.995 156.8 37.995 153.711 37.995ZM213.442 81.4967C213.436 73.6745 213.532 65.8507 213.398 58.0307C213.222 47.6991 207.666 40.5474 197.781 38.2387C185.06 35.2677 173.208 38.4002 161.349 43.7417C163.202 48.0012 164.897 51.8967 166.185 54.857C172.869 53.5464 178.962 51.641 185.136 51.3321C191.929 50.9922 195.016 54.6941 194.769 61.0751C190.967 61.0751 187.147 60.9536 183.339 61.1093C179.528 61.2651 175.667 61.3695 171.938 62.0747C162.874 63.7883 157.683 69.9882 157.633 78.6241C157.582 87.458 162.908 94.1603 171.653 96.1516C180.356 98.1336 188.229 96.379 195.361 89.9757C195.361 92.3612 195.361 93.9991 195.361 95.7141C201.445 95.7141 207.35 95.7141 213.442 95.7141C213.442 91.1158 213.442 86.805 213.442 81.4967ZM220.614 89.3641C220.614 91.4806 220.614 93.5971 220.614 95.7853C227.096 95.7853 233.021 95.7853 239.294 95.7853C239.294 86.6053 239.265 77.6444 239.303 68.6837C239.339 60.1638 244.529 54.6132 252.988 53.9785C254.6 53.8575 256.219 53.8263 257.892 53.751C257.892 48.0647 257.892 42.6692 257.892 37.1288C250.19 37.431 244.245 40.4487 239.251 47.5964C239.251 43.6306 239.251 40.9236 239.251 38.2464C232.849 38.2464 226.931 38.2464 220.614 38.2464C220.614 55.1299 220.614 71.7611 220.614 89.3641Z" fill="#010101"/>
<path d="M476.153 39.9517C492.388 45.0572 500.413 57.5408 497.817 73.066C495.209 88.658 482.899 98.1766 465.965 97.6951C444.457 97.0835 431.668 81.1644 436.198 60.6417C438.804 48.8344 448.772 40.265 461.863 39.2004C466.439 38.8282 471.111 39.6274 476.153 39.9517ZM470.142 53.9632C464.382 52.8179 459.405 54.028 456.343 59.3798C452.954 65.3035 452.892 71.5699 456.317 77.4557C460.932 85.3861 472.157 85.3775 477.124 77.6582C482.304 69.6071 479.453 58.727 470.142 53.9632Z" fill="#040404"/>
<path d="M435.07 49.3332C434.948 50.8466 435.009 52.6197 434.213 53.1844C430.972 55.4838 427.468 57.4131 424.086 59.4637C416.68 52.4924 408.505 51.6806 403.137 58.1271C398.249 63.9975 399.034 75.2844 404.472 80.1285C409.807 84.8795 417.363 83.6299 424.029 76.649C428.201 79.0947 432.455 81.5884 436.675 84.0625C432.931 93.7692 419.946 98.3731 408.867 97.5904C390.455 96.2896 379.202 82.5174 381.479 64.3355C383.694 46.6522 399.037 35.971 417.353 39.3466C424.277 40.6225 430.286 43.5267 435.07 49.3332Z" fill="#050505"/>
<path d="M363.35 91.4165C363.102 84.4284 365.242 81.0499 370.171 80.1377C374.53 79.3312 378.86 81.6372 380.283 85.5224C381.864 89.8409 380.195 94.7582 376.458 96.7927C372.508 98.9428 367.594 97.9774 364.824 94.4277C364.224 93.6596 363.881 92.6912 363.35 91.4165Z" fill="#080808"/>
<path d="M291.001 71.0788C295.472 73.0206 293.45 76.1379 292.435 78.4406C290.195 83.5175 281.575 86.1895 276.951 83.0534C275.136 81.8229 273.536 78.7588 273.668 76.6436C273.779 74.8706 276.316 72.2143 278.189 71.7995C282.163 70.9196 286.403 71.2457 291.001 71.0788Z" fill="#080808"/>
<path d="M177.161 72.8116C183.279 71.8662 189.066 71.1662 194.847 70.4668C195.775 80.459 188.334 86.5125 179.837 83.8182C175.168 82.3377 173.981 78.0888 177.161 72.8116Z" fill="#070707"/>
</svg>
