<svg width="500" height="128" viewBox="0 0 500 128" fill="none" xmlns="http://www.w3.org/2000/svg">
<path d="M355.472 96.0187C351.778 102.126 348.094 108.24 344.387 114.34C339.233 122.822 331.916 127.166 321.755 127.158C218.032 127.076 114.308 127.064 10.5852 127.253C5.91875 127.261 3.39697 124.89 0.252625 122.679C1.04308e-06 121.011 1e-06 118.969 0 116.49C0.993017 115.237 2.31075 114.615 2.93092 113.576C14.4295 94.3229 25.842 75.0179 37.2847 55.7309C38.0221 54.488 38.8571 53.303 40.2679 51.1377C40.2679 66.3003 40.2679 80.3784 40.2679 94.7353C46.5843 94.7353 52.504 94.7353 59.0053 94.7353C59.0053 85.869 58.8535 76.9385 59.0885 68.0182C59.1696 64.9404 59.7119 61.6702 60.9271 58.8716C63.1479 53.7577 68.3214 51.7024 73.8872 53.0229C78.196 54.0452 80.993 57.7751 81.0503 63.1746C81.1613 73.6289 81.0828 84.0853 81.0828 94.7771C87.3892 94.7771 93.3076 94.7771 99.3874 94.7771C99.3874 81.2917 99.783 67.853 99.2424 54.4521C98.9059 46.1111 94.0781 39.945 85.9976 37.4267C77.1543 34.6707 68.8725 36.2039 61.9778 42.884C61.1705 43.6662 60.4765 44.5652 59.0501 46.1796C59.0501 36.7922 58.2647 28.1523 59.2515 19.7198C60.4491 9.48632 72.4741 0.026875 82.7928 0.024006C187.741 -0.00513804 292.689 -0.00381038 397.638 0.00735862C405.336 0.00816762 408.584 6.04609 404.451 13.0567C391.8 34.5135 379 55.8827 365.796 77.4293C362.7 73.5478 360.066 69.523 357.276 65.2601C363.264 56.0229 369.25 46.7904 375.565 37.049C369.254 37.049 363.908 36.8187 358.603 37.18C356.86 37.2986 354.674 38.5519 353.639 39.9759C350.575 44.1941 347.983 48.7562 344.912 53.6543C341.935 48.4852 339.459 43.9822 336.749 39.624C336.069 38.5286 334.667 37.209 333.552 37.1668C327.303 36.93 321.04 37.0527 313.996 37.0527C319.682 45.768 324.82 53.8714 330.224 61.7933C331.961 64.3388 332.131 66.0955 330.276 68.774C324.607 76.9604 319.323 85.4131 313.456 93.6802C312.858 91.9699 312.555 90.3423 312.547 88.7133C312.499 78.3951 312.681 68.0732 312.467 57.7593C312.23 46.3781 306.464 39.3055 295.98 37.0965C283.546 34.4769 272.033 37.5811 260.364 42.742C262.165 46.9644 263.822 50.8514 265.545 54.8916C267.592 54.0538 269.219 52.9848 270.958 52.7508C276.61 51.9902 282.355 50.8093 287.966 51.1974C292.276 51.4955 294.411 55.1988 293.906 60.1204C292.448 60.1204 291.296 60.0767 290.149 60.1277C283.847 60.4075 277.468 60.1942 271.263 61.1267C261.968 62.5234 256.889 68.6505 256.755 77.337C256.611 86.6603 261.706 93.2043 270.79 95.2433C279.358 97.1665 287.114 95.438 294.073 89.2958C294.185 91.484 294.268 93.0931 294.358 94.8652C301.079 94.8652 307.54 94.8652 314.462 94.9529C319.588 95.0457 324.272 94.7963 328.912 95.1414C332.252 95.3897 334.021 94.0787 335.636 91.3491C338.442 86.605 341.636 82.0904 345.158 76.734C348.927 83.7809 352.199 89.8998 355.472 96.0187ZM118.86 41.6256C118.214 40.1186 117.569 38.6116 116.994 37.2716C110.62 37.2716 104.54 37.2716 98.0617 37.2716C105.58 54.9971 112.815 72.4504 120.44 89.7313C122.151 93.6072 121.859 96.9649 118.768 98.864C116.325 100.365 112.722 100.18 109.616 100.3C108.335 100.35 107.009 99.2397 105.562 98.5935C103.011 102.784 100.628 106.698 98.2707 110.569C110.952 121.417 129.44 117.957 136.194 103.138C141.624 91.2252 146.047 78.8513 150.856 66.6577C154.676 56.9697 158.403 47.245 162.362 37.0476C157.998 37.0476 154.154 37.4429 150.427 36.9508C145.398 36.2868 143.209 38.0725 141.819 42.9961C138.829 53.5917 135.082 63.9738 131.318 75.4369C127.004 63.8101 123.032 53.105 118.86 41.6256ZM195.735 59.7797C192.258 59.8949 188.777 59.9329 185.306 60.1447C180.835 60.4175 176.277 60.3731 171.925 61.278C163.208 63.0905 158.261 69.5021 158.369 77.9406C158.48 86.6195 163.689 93.2052 172.157 95.1577C180.892 97.1716 188.853 95.6077 195.892 89.1144C195.999 91.3982 196.079 93.1215 196.158 94.8167C202.32 94.8167 208.081 94.8167 214.159 94.8167C214.159 82.1338 214.265 69.6864 214.127 57.2416C214.004 46.0825 207.797 39.0445 196.707 36.9453C184.57 34.6479 173.403 37.7844 162.094 42.7575C163.898 46.9461 165.581 50.8531 166.936 54C173.345 52.6591 179.244 50.7866 185.25 50.3402C191.818 49.852 194.637 52.7051 195.735 59.7797ZM240.026 73.6001C240.026 72.1012 240.025 70.6024 240.027 69.1035C240.037 58.4528 245.109 53.2736 255.837 52.9521C256.773 52.924 257.708 52.8588 258.56 52.8151C258.56 47.0413 258.56 41.6738 258.56 36.2087C250.809 36.4656 244.962 39.6594 239.847 46.6754C239.847 42.5857 239.847 39.8856 239.847 37.368C233.454 37.368 227.55 37.368 221.681 37.368C221.681 56.7476 221.681 75.8007 221.681 94.7788C227.945 94.7788 233.866 94.7788 240.026 94.7788C240.026 87.8615 240.026 81.2239 240.026 73.6001Z" fill="#FEFEFE"/>
<path d="M500 71.5918C499.366 72.4939 498.277 72.8403 498.162 73.3904C492.686 99.539 457.179 100.93 444.121 86.9809C435.765 78.0547 434.171 67.5834 437.628 56.359C441.202 44.7552 450.087 39.081 461.608 37.2936C479.873 34.4596 492.747 42.5106 498.339 59.9354C498.452 60.2885 499.027 60.4934 499.693 60.41C500 63.7454 500 67.4383 500 71.5918ZM476.215 77.8168C477.061 76.5948 478.084 75.4585 478.724 74.1372C483.047 65.2252 478.788 53.777 470.541 51.9621C464.422 50.6156 459.168 53.0318 456.379 58.4746C453.212 64.6577 454.591 74.1427 459.271 78.362C463.637 82.2983 469.853 82.2949 476.215 77.8168Z" fill="#FBFBFB"/>
<path d="M412.877 95.7098C390.475 95.0662 378.22 79.5112 382.982 58.3496C385.472 47.2785 394.37 39.2141 406.232 37.277C419.136 35.1697 431.441 40.1305 437.194 49.9872C432.99 52.5456 428.78 55.1078 424.639 57.6281C416.725 50.7912 409.178 50.1091 404.257 55.63C399.142 61.3687 399.561 72.9906 405.065 78.0525C410.394 82.9534 418.134 81.7652 424.682 74.6952C428.94 77.1817 433.305 79.7308 437.78 82.3441C432.153 91.9195 423.392 95.0105 412.877 95.7098Z" fill="#FAFAFA"/>
<path d="M366.461 93.823C362.763 87.5946 362.964 84.6379 367.249 79.6114C375.031 76.8217 380.72 79.0051 381.188 85.2541C381.401 88.1077 380.104 91.8881 378.125 93.907C374.923 97.1727 370.615 96.5568 366.461 93.823Z" fill="#F7F7F7"/>
<path d="M277.421 71.1141C283.056 70.582 288.301 70.1874 293.617 69.7875C294.66 74.1873 294.313 77.5934 291.111 80.2321C287.345 83.3356 282.936 84.0511 278.446 82.6607C273.313 81.0712 272.744 75.5092 277.421 71.1141Z" fill="#F8F8F8"/>
<path d="M179.199 82.2151C177.95 79.3927 176.02 76.5176 176.543 74.1939C176.926 72.4895 180.41 70.7119 182.717 70.3781C186.927 69.7686 191.29 70.2048 195.539 70.2048C196.759 80.2578 190.265 85.0718 179.199 82.2151Z" fill="#F8F8F8"/>
</svg>
